<svg id="Layer_1" data-name="Layer 1" xmlns="http://www.w3.org/2000/svg" viewBox="0 0 369.75 591.69"><defs><style>.cls-1{fill:#ff0096;}.cls-2{fill:none;stroke:blue;stroke-miterlimit:10;stroke-width:15px;}</style></defs><title>Artboard 1</title><polygon points="339.11 278.87 342.97 290.4 322.45 297.98 333.88 286.9 325.78 283.79 339.11 278.87"/><polygon points="333.88 286.9 322.45 297.98 253.68 323.38 263.41 310.97 254.37 310.15 325.78 283.79 333.88 286.9"/><polygon class="cls-1" points="322.45 297.98 119.33 494.75 253.68 323.38 322.45 297.98"/><polygon points="283.99 57.28 290.16 67.12 276.11 75.78 282.57 62.23 278.34 60.77 283.99 57.28"/><polygon points="263.41 310.97 253.68 323.38 253.48 323.45 249.6 311.92 254.37 310.15 263.41 310.97"/><polygon points="204.87 225.34 210.55 235.41 206.34 237.82 199.98 235.37 204.72 225.42 204.87 225.34"/><polygon points="276.11 75.78 200.52 122.41 203.36 117.83 191.63 114.25 278.34 60.77 282.57 62.23 276.11 75.78"/><polygon points="203.36 117.83 200.52 122.41 195.6 125.44 189.44 115.61 191.63 114.25 203.36 117.83"/><polygon points="119.33 494.75 67.58 560.73 58.28 553.23 63.28 546.85 63.46 548.85 119.33 494.75"/><polygon class="cls-1" points="103.5 296.61 206.34 237.82 325.78 283.79 254.37 310.15 103.5 296.61"/><polygon points="206.34 237.82 103.5 296.61 92.85 295.66 98.91 285.91 204.72 225.42 199.98 235.37 206.34 237.82"/><polygon class="cls-1" points="98.91 285.91 200.52 122.41 276.11 75.78 204.72 225.42 98.91 285.91"/><polygon points="98.91 285.91 92.85 295.66 103.5 296.61 89.38 304.69 83.7 294.61 98.91 285.91"/><polygon points="184.97 124.82 21.32 74.89 20.93 70.5 33.59 66.05 191.63 114.25 189.44 115.61 195.6 125.44 200.52 122.41 98.91 285.91 83.7 294.61 89.38 304.69 103.5 296.61 254.37 310.15 249.6 311.92 253.48 323.45 253.68 323.38 119.33 494.75 63.46 548.85 63.28 546.85 240.34 321 72.42 305.93 184.97 124.82"/><polygon points="21.52 62.36 33.59 66.05 20.93 70.5 19.25 70 21.52 62.36"/><path d="M21.32,74.89l42,472-5,6.38,9.3,7.5,51.75-66L322.45,298,343,290.4l-3.86-11.53-13.33,4.92-119.44-46,4.21-2.41-5.68-10.07-.15.08L276.11,75.78l14.05-8.66L284,57.29l-5.65,3.48L161.9,20.88,33.59,66.05,21.51,62.36,19.25,70l-1.16,3.92ZM53.61,575.37,8,62.1,161.85,7.94,299.46,55.09,216.64,228.7,356.1,282.36Z"/><polygon points="20.93 70.5 21.32 74.89 18.09 73.91 19.25 70 20.93 70.5"/><polygon class="cls-2" points="53.61 575.37 7.99 62.1 161.85 7.94 299.46 55.09 216.64 228.7 356.1 282.36 53.61 575.37"/><polygon class="cls-2" points="20.93 70.5 21.32 74.89 63.28 546.85 63.46 548.85 119.33 494.75 322.45 297.98 333.88 286.9 325.78 283.79 206.34 237.82 199.98 235.37 204.72 225.42 276.11 75.78 282.57 62.23 278.34 60.77 161.9 20.88 33.59 66.05 20.93 70.5"/><polygon class="cls-2" points="119.33 494.75 67.58 560.73 58.28 553.23 63.28 546.85 240.34 321 72.42 305.93 184.97 124.82 21.32 74.89 18.09 73.91 19.25 70 21.52 62.36 33.59 66.05 191.63 114.25 203.36 117.83 200.52 122.41 98.91 285.91 92.85 295.66 103.5 296.61 254.37 310.15 263.41 310.97 253.68 323.38 119.33 494.75"/><polygon class="cls-2" points="103.5 296.61 89.38 304.69 83.7 294.61 98.91 285.91 204.72 225.42 204.87 225.34 210.55 235.41 206.34 237.82 103.5 296.61"/><polygon class="cls-2" points="200.52 122.41 195.6 125.44 189.44 115.61 191.63 114.25 278.34 60.77 283.99 57.28 290.16 67.12 276.11 75.78 200.52 122.41"/><polygon class="cls-2" points="253.68 323.38 253.48 323.45 249.6 311.92 254.37 310.15 325.78 283.79 339.11 278.87 342.97 290.4 322.45 297.98 253.68 323.38"/></svg>